<?xml version="1.0" encoding="UTF-8"?>
<svg id="Layer_1" xmlns="http://www.w3.org/2000/svg" version="1.1" viewBox="0 0 1920 1080">
  <!-- Generator: Adobe Illustrator 30.1.0, SVG Export Plug-In . SVG Version: 2.1.1 Build 136)  -->
  <defs>
    <style>
      .st0 {
        fill: #0067d4;
      }

      .st1 {
        fill: #69cd00;
      }

      .st2 {
        fill: #1d1d1b;
      }

      .st3 {
        fill: #f10001;
      }

      .st4 {
        isolation: isolate;
      }

      .st5 {
        fill: #fff;
      }

      .st6 {
        fill: #ffc800;
      }

      .st7 {
        fill: #ff1c4d;
      }

      .st8 {
        display: none;
      }
    </style>
  </defs>
  <g id="Layer_11" data-name="Layer_1">
    <g>
      <g>
        <g>
          <path d="M876.57,455.71v168.57c0,25.83-13.89,49.89-36.26,62.81l-145.99,84.28c-11.18,6.46-23.72,9.69-36.26,9.69s-25.08-3.23-36.26-9.69l-145.99-84.28c-22.37-12.92-36.26-36.98-36.26-62.81v-168.57c0-25.83,13.89-49.89,36.26-62.81l145.99-84.28c22.37-12.92,50.15-12.92,72.52,0l145.99,84.28c22.37,12.92,36.26,36.98,36.26,62.81h0Z"/>
          <g>
            <path class="st6" d="M741.57,427.55l-82.46,47.66c-12.53,7.24-31.21,8.18-41.75,2.09l-59.08-34.11c-10.54-6.08-8.97-16.9,3.5-24.18l82.11-47.87c12.58-7.34,31.38-8.33,41.97-2.21l59.41,34.32c10.59,6.12,8.92,17-3.71,24.31h.01Z"/>
            <path class="st6" d="M639.4,385.39l-55.73,32.46c-3.35,1.95-8.37,2.21-11.2.58l-18.44-10.65c-2.83-1.63-2.41-4.55.94-6.5l55.66-32.5c3.37-1.97,8.4-2.23,11.24-.59l18.49,10.68c2.84,1.64,2.41,4.56-.97,6.53h.01Z"/>
            <path class="st6" d="M746.68,438.73l-70.84,40.9c-3.37,1.94-8.39,2.19-11.22.56l-18.43-10.64c-2.83-1.63-2.4-4.53.96-6.48l70.76-40.96c3.38-1.96,8.43-2.22,11.27-.58l18.49,10.68c2.84,1.64,2.39,4.56-1,6.51h0Z"/>
            <g>
              <path class="st2" d="M630.39,425.13c3.38,1.95,2.86,5.42-1.15,7.75s-9.99,2.63-13.37.68-2.87-5.42,1.14-7.75,10-2.64,13.37-.69h.01Z"/>
              <path class="st2" d="M669.25,402.55c3.38,1.95,2.86,5.43-1.16,7.77s-10.02,2.65-13.41.69c-3.38-1.95-2.86-5.43,1.16-7.77,4.02-2.34,10.03-2.65,13.41-.7h0Z"/>
            </g>
            <path d="M649.29,449.61c15.7-2.75,35.72-10.28,42.97-25.59,3.29-6.94-7.05-13.04-10.36-6.06-5.93,12.52-23.09,17.85-35.8,20.08-7.59,1.33-4.37,12.9,3.19,11.57h0Z"/>
          </g>
          <path class="st5" d="M632.14,600.98h0c0-24.29-19.94-55.59-44.51-69.99l-97.63-57.18c-7.69-4.5-13.99-2.06-14.08,5.47l-.88,73.24v.29l-.9,74.07c-.09,7.71,6.15,17.68,13.94,22.27l98.95,58.22c24.91,14.66,45.11,6.44,45.11-18.27h0c0-11.79-5.18-26.02-14.17-38.97l-9.77-14.06c-3.24-4.66-3.23-9.62.02-10.47l9.78-2.56c8.98-2.35,14.14-10.42,14.14-22.08v.02Z"/>
          <g>
            <polygon class="st3" points="790.66 486.53 791.3 661.3 718.89 704.14 718.18 528.21 790.66 486.53"/>
            <path class="st7" d="M777.69,628.08c.05,14.06-9.97,31.4-22.42,38.75-12.47,7.36-22.65,1.9-22.71-12.22s10.04-31.51,22.51-38.81c12.45-7.29,22.56-1.78,22.61,12.29h.01Z"/>
            <polygon class="st7" points="760.22 616.7 769.22 613.19 777.17 614.86 769.72 636.45 754.44 659 749.59 670.55 743.09 670 740.46 655.27 745.12 634.03 760.22 616.7"/>
            <path class="st3" d="M786.56,629.97c.05,13.99-9.92,31.25-22.31,38.56-12.41,7.33-22.54,1.89-22.6-12.16s9.99-31.35,22.4-38.62c12.39-7.25,22.45-1.77,22.5,12.23h0Z"/>
            <path class="st7" d="M777.69,545.67c.05,14.06-9.97,31.4-22.42,38.75s-22.65,1.9-22.71-12.22,10.04-31.51,22.51-38.81c12.45-7.29,22.56-1.78,22.61,12.29h.01Z"/>
            <polygon class="st7" points="760.22 534.29 769.22 530.78 777.17 532.46 769.72 554.05 754.44 576.6 749.59 588.15 743.09 587.6 740.46 572.87 745.12 551.63 760.22 534.29"/>
            <path class="st3" d="M786.56,547.57c.05,13.99-9.92,31.25-22.31,38.56-12.41,7.33-22.54,1.89-22.6-12.16s9.99-31.35,22.4-38.62c12.39-7.25,22.45-1.77,22.5,12.23h0Z"/>
          </g>
          <g>
            <g>
              <g>
                <path d="M532.64,562.66c5.42,2.83,9.58,8.57,9.28,12.76-.3,4.13-4.84,5.16-10.13,2.36s-9.38-8.37-9.21-12.54,4.67-5.41,10.06-2.59h0Z"/>
                <path d="M550.41,556.6c5.62,2.9,9.84,8.84,9.41,13.19-.43,4.29-5.23,5.39-10.71,2.53-5.46-2.86-9.63-8.63-9.35-12.95s5.05-5.65,10.65-2.76h0Z"/>
                <path d="M516.01,555c-5.31-2.78-9.54-8.53-9.47-12.91.07-4.44,4.52-5.81,9.96-3,5.46,2.82,9.74,8.73,9.54,13.14-.2,4.35-4.7,5.56-10.03,2.77h0Z"/>
                <path d="M534.25,533.97c5.66,2.89,10,8.99,9.67,13.55s-5.08,5.78-10.6,2.92c-5.49-2.84-9.78-8.77-9.59-13.3s4.89-6.04,10.52-3.17Z"/>
              </g>
              <g>
                <path class="st0" d="M532.64,562.66c5.42,2.83,9.58,8.57,9.28,12.76-.3,4.13-4.84,5.16-10.13,2.36s-9.38-8.37-9.21-12.54,4.67-5.41,10.06-2.59h0Z"/>
                <path class="st3" d="M534.25,533.97c5.66,2.89,10,8.99,9.67,13.55s-5.08,5.78-10.6,2.92c-5.49-2.84-9.78-8.77-9.59-13.3s4.89-6.04,10.52-3.17Z"/>
                <path class="st6" d="M516.49,539.09c5.46,2.82,9.74,8.73,9.54,13.14-.2,4.35-4.7,5.56-10.03,2.77s-9.54-8.53-9.47-12.91c.07-4.44,4.52-5.81,9.96-3h0Z"/>
                <path class="st1" d="M550.41,556.6c5.62,2.9,9.84,8.84,9.41,13.19-.43,4.29-5.23,5.39-10.71,2.53-5.46-2.86-9.63-8.63-9.35-12.95s5.05-5.65,10.65-2.76h0Z"/>
              </g>
            </g>
            <path d="M526.45,617.16l6.05,3.3c2.28,1.24,4.04,3.59,3.93,5.22l-.51,7.34,10.28,5.66c2.28,1.25,3.99,3.54,3.84,5.1l-.39,4.13c-.15,1.54-2.06,1.78-4.3.54l-10.11-5.6-.48,6.93c-.04.57-.33.96-.8,1.15h0c-.71.29-1.82.14-3.04-.5-.09-.04-.18-.09-.26-.14l-5.74-3.21c-.33-.18-.65-.39-.95-.61-.61-.45-1.16-.97-1.6-1.51-.78-.95-1.26-1.96-1.22-2.77l.31-6.98-9.91-5.49c-2.16-1.2-3.88-3.44-3.85-5.01l.09-4.22c.03-1.6,1.84-1.93,4.04-.72l10.08,5.54.33-7.4c.07-1.65,1.96-1.99,4.23-.75h-.02Z"/>
          </g>
        </g>
        <g>
          <path class="st6" d="M740,430.4l-81.62,47.17c-12.4,7.17-30.89,8.09-41.32,2.07l-58.48-33.77c-10.43-6.02-8.88-16.73,3.47-23.93l81.28-47.39c12.45-7.26,31.06-8.24,41.55-2.19l58.8,33.97c10.48,6.06,8.83,16.83-3.68,24.06h0Z"/>
          <path class="st6" d="M638.87,388.67l-55.16,32.13c-3.32,1.93-8.28,2.19-11.08.57l-18.25-10.54c-2.8-1.62-2.39-4.5.93-6.44l55.09-32.17c3.33-1.95,8.32-2.21,11.13-.59l18.3,10.57c2.81,1.62,2.38,4.52-.96,6.46h0Z"/>
          <path class="st6" d="M745.05,441.47l-70.12,40.49c-3.33,1.92-8.3,2.17-11.1.56l-18.24-10.53c-2.8-1.62-2.37-4.49.96-6.42l70.04-40.54c3.35-1.94,8.34-2.2,11.15-.57l18.3,10.57c2.81,1.62,2.37,4.51-.99,6.45h0Z"/>
          <g>
            <path class="st2" d="M629.95,428c3.34,1.93,2.83,5.36-1.13,7.67-3.97,2.3-9.89,2.61-13.23.68-3.34-1.93-2.84-5.36,1.13-7.67s9.9-2.61,13.24-.68h-.01Z"/>
            <path class="st2" d="M668.42,405.66c3.35,1.93,2.83,5.38-1.15,7.69s-9.92,2.62-13.27.69-2.84-5.37,1.14-7.69,9.92-2.62,13.27-.69h.01Z"/>
          </g>
          <path d="M648.67,452.29c15.56-2.73,35.38-10.19,42.57-25.36,3.29-6.94-7.05-13.04-10.36-6.06-5.87,12.37-22.83,17.64-35.4,19.84-7.59,1.33-4.37,12.9,3.19,11.57h0Z"/>
        </g>
        <path class="st5" d="M631.68,602.06h0c0-24.04-19.73-55.03-44.06-69.27l-96.63-56.6c-7.61-4.46-13.85-2.03-13.94,5.42l-.87,72.49v.28l-.89,73.32c-.09,7.63,6.08,17.5,13.8,22.04l97.94,57.63c24.65,14.51,44.65,6.38,44.65-18.08h0c0-11.67-5.13-25.76-14.03-38.57l-9.67-13.91c-3.2-4.61-3.19-9.52.02-10.36l9.68-2.53c8.89-2.33,14-10.31,14-21.85h0Z"/>
        <g>
          <g>
            <g>
              <path d="M533.19,564.13c5.36,2.8,9.48,8.49,9.18,12.63s-4.79,5.11-10.03,2.34c-5.21-2.76-9.28-8.29-9.11-12.41s4.62-5.35,9.96-2.56h0Z"/>
              <path d="M550.78,558.14c5.56,2.87,9.74,8.75,9.31,13.05-.42,4.25-5.18,5.34-10.6,2.5-5.4-2.83-9.54-8.54-9.25-12.82.29-4.34,5-5.59,10.54-2.73Z"/>
              <path d="M516.73,556.55c-5.26-2.75-9.44-8.44-9.38-12.78s4.47-5.75,9.86-2.97c5.4,2.79,9.64,8.64,9.45,13.01s-4.65,5.5-9.93,2.74Z"/>
              <path d="M534.79,535.73c5.6,2.86,9.9,8.9,9.57,13.41-.32,4.46-5.03,5.72-10.49,2.89-5.44-2.81-9.68-8.68-9.49-13.17.19-4.55,4.84-5.98,10.41-3.14h0Z"/>
            </g>
            <g>
              <path class="st0" d="M533.19,564.13c5.36,2.8,9.48,8.49,9.18,12.63s-4.79,5.11-10.03,2.34c-5.21-2.76-9.28-8.29-9.11-12.41s4.62-5.35,9.96-2.56h0Z"/>
              <path class="st3" d="M534.79,535.73c5.6,2.86,9.9,8.9,9.57,13.41-.32,4.46-5.03,5.72-10.49,2.89-5.44-2.81-9.68-8.68-9.49-13.17.19-4.55,4.84-5.98,10.41-3.14h0Z"/>
              <path class="st6" d="M517.21,540.8c5.4,2.79,9.64,8.64,9.45,13.01s-4.65,5.5-9.93,2.74c-5.26-2.75-9.44-8.44-9.38-12.78s4.47-5.75,9.86-2.97Z"/>
              <path class="st1" d="M550.78,558.14c5.56,2.87,9.74,8.75,9.31,13.05-.42,4.25-5.18,5.34-10.6,2.5-5.4-2.83-9.54-8.54-9.25-12.82.29-4.34,5-5.59,10.54-2.73Z"/>
            </g>
          </g>
          <path d="M527.07,618.08l5.98,3.27c2.26,1.23,4,3.55,3.89,5.17l-.5,7.27,10.18,5.6c2.25,1.24,3.95,3.5,3.8,5.05l-.39,4.09c-.14,1.52-2.04,1.76-4.26.53l-10-5.55-.47,6.86c-.04.57-.33.95-.79,1.14h0c-.71.29-1.8.14-3.01-.49-.09-.04-.17-.09-.26-.13l-5.68-3.17c-.33-.18-.64-.39-.94-.61-.61-.45-1.14-.96-1.58-1.5-.77-.94-1.24-1.94-1.21-2.74l.31-6.91-9.8-5.44c-2.14-1.19-3.85-3.4-3.81-4.96l.08-4.18c.03-1.58,1.82-1.91,3.99-.71l9.97,5.49.32-7.32c.07-1.63,1.94-1.97,4.19-.75h0Z"/>
        </g>
      </g>
      <g>
        <g class="st4">
          <g class="st4">
            <path d="M988.06,538.82h-61.83v-92.78h61.83v10.32h10.32v30.95h-10.32v10.25h10.32v30.95h-10.32v10.32ZM977.74,487.3v-20.63h-30.89v20.63h30.89ZM977.74,518.19v-20.63h-30.89v20.63h30.89Z"/>
            <path d="M1081.67,538.82h-51.52v-10.32h-10.32v-72.15h10.32v-10.32h51.52v10.32h10.25v72.15h-10.25v10.32ZM1071.36,518.19v-51.52h-30.95v51.52h30.95Z"/>
            <path d="M1175.29,538.82h-51.52v-10.32h-10.32v-72.15h10.32v-10.32h51.52v10.32h10.25v72.15h-10.25v10.32ZM1164.97,518.19v-51.52h-30.95v51.52h30.95Z"/>
            <path d="M1301.14,538.82h-20.63v-61.83h-10.25v10.32h-10.32v10.25h-10.32v-10.25h-10.32v-10.32h-10.32v61.83h-20.57v-92.78h20.57v10.32h10.32v10.32h10.32v10.32h10.32v-10.32h10.32v-10.32h10.25v-10.32h20.63v92.78Z"/>
            <path d="M1384.31,538.82h-51.52v-10.32h-10.32v-72.15h10.32v-10.32h51.52v20.63h-41.2v20.63h30.89v10.25h-30.89v20.63h41.2v20.63Z"/>
            <path d="M1472.99,538.82h-20.63v-10.32h-9.8v-10.32h-10.32v-10.32h-10.76v30.95h-20.63v-92.78h61.83v10.32h10.32v30.95h-10.32v10.25h-10.32v10.32h10.32v10.32h10.32v20.63ZM1452.36,487.3v-20.63h-30.88v20.63h30.88Z"/>
          </g>
        </g>
        <g class="st4">
          <g class="st4">
            <path d="M963.45,659.47h-42.55v-10.32h10.96v-72.15h-10.96v-10.32h42.55v10.32h-10.96v72.15h10.96v10.32Z"/>
            <path d="M1015.74,659.47h-20.57v-72.15h-20.63v-20.63h61.83v20.63h-20.63v72.15Z"/>
            <path d="M1108.07,659.47h-51.52v-10.32h-10.32v-72.15h10.32v-10.32h51.52v20.63h-41.2v20.63h30.89v10.25h-30.89v20.63h41.2v20.63Z"/>
            <path d="M1217.33,659.47h-20.63v-61.83h-10.25v10.32h-10.32v10.25h-10.32v-10.25h-10.32v-10.32h-10.32v61.83h-20.57v-92.78h20.57v10.32h10.32v10.32h10.32v10.32h10.32v-10.32h10.32v-10.32h10.25v-10.32h20.63v92.78Z"/>
            <path d="M1299.66,659.47h-51.52v-10.32h-10.32v-20.63h20.63v10.32h30.88v-10.32h-20.63v-10.32h-20.57v-10.25h-10.32v-30.95h10.32v-10.32h51.52v10.32h10.32v20.63h-20.63v-10.32h-30.88v10.32h20.57v10.32h20.63v10.25h10.32v30.95h-10.32v10.32Z"/>
          </g>
        </g>
      </g>
    </g>
  </g>
  <g id="Layer_2" class="st8">
    <g>
      <polygon class="st3" points="1209.34 439.45 1210.55 768.09 1074.4 848.64 1073.06 517.83 1209.34 439.45"/>
      <path class="st7" d="M1184.96,705.62c.1,26.44-18.75,59.05-42.15,72.86-23.46,13.84-42.6,3.57-42.7-22.99-.11-26.56,18.87-59.25,42.33-72.98,23.41-13.7,42.43-3.34,42.52,23.11Z"/>
      <polygon class="st7" points="1152.1 684.22 1169.03 677.62 1183.97 680.77 1169.97 721.37 1141.24 763.77 1132.13 785.49 1119.89 784.45 1114.96 756.76 1123.72 716.81 1152.1 684.22"/>
      <path class="st3" d="M1201.64,709.18c.1,26.31-18.66,58.76-41.94,72.5-23.34,13.77-42.39,3.55-42.49-22.87-.11-26.43,18.78-58.95,42.12-72.62,23.29-13.63,42.22-3.33,42.31,22.99h0Z"/>
      <path class="st7" d="M1184.96,550.66c.1,26.44-18.75,59.05-42.15,72.86-23.46,13.84-42.6,3.57-42.7-22.99-.11-26.56,18.87-59.25,42.33-72.98,23.41-13.7,42.43-3.34,42.52,23.11Z"/>
      <polygon class="st7" points="1152.1 529.27 1169.03 522.67 1183.97 525.82 1169.97 566.42 1141.24 608.81 1132.13 630.54 1119.89 629.5 1114.96 601.81 1123.72 561.86 1152.1 529.27"/>
      <path class="st3" d="M1201.64,554.23c.1,26.31-18.66,58.76-41.94,72.5-23.34,13.77-42.39,3.55-42.49-22.87-.11-26.43,18.78-58.95,42.12-72.62,23.29-13.63,42.22-3.33,42.31,22.99h0Z"/>
    </g>
  </g>
</svg>